<mxfile host="app.diagrams.net" agent="Mozilla/5.0 (X11; Linux x86_64) AppleWebKit/537.36 (KHTML, like Gecko) Chrome/137.0.0.0 Safari/537.36" version="27.2.0">
  <diagram name="Page-1" id="_XHH5MK28e_cH3a8MCp8">
    <mxGraphModel dx="691" dy="1883" grid="1" gridSize="10" guides="1" tooltips="1" connect="1" arrows="1" fold="1" page="1" pageScale="1" pageWidth="850" pageHeight="1100" math="0" shadow="0">
      <root>
        <mxCell id="0" />
        <mxCell id="1" parent="0" />
        <mxCell id="jEZ4lqBL-6xTg0hK4aj5-1" style="edgeStyle=none;html=1;exitX=0.25;exitY=0;exitDx=0;exitDy=0;entryX=0.5;entryY=1;entryDx=0;entryDy=0;" parent="1" source="jEZ4lqBL-6xTg0hK4aj5-8" target="jEZ4lqBL-6xTg0hK4aj5-21" edge="1">
          <mxGeometry relative="1" as="geometry" />
        </mxCell>
        <mxCell id="jEZ4lqBL-6xTg0hK4aj5-2" style="edgeStyle=none;html=1;exitX=0.75;exitY=0;exitDx=0;exitDy=0;entryX=0.5;entryY=1;entryDx=0;entryDy=0;" parent="1" source="jEZ4lqBL-6xTg0hK4aj5-8" target="jEZ4lqBL-6xTg0hK4aj5-22" edge="1">
          <mxGeometry relative="1" as="geometry" />
        </mxCell>
        <mxCell id="jEZ4lqBL-6xTg0hK4aj5-3" style="edgeStyle=none;html=1;exitX=0.75;exitY=1;exitDx=0;exitDy=0;" parent="1" source="jEZ4lqBL-6xTg0hK4aj5-8" target="jEZ4lqBL-6xTg0hK4aj5-23" edge="1">
          <mxGeometry relative="1" as="geometry" />
        </mxCell>
        <mxCell id="jEZ4lqBL-6xTg0hK4aj5-4" style="edgeStyle=none;html=1;exitX=0.149;exitY=0.962;exitDx=0;exitDy=0;entryX=0.5;entryY=0;entryDx=0;entryDy=0;exitPerimeter=0;" parent="1" source="jEZ4lqBL-6xTg0hK4aj5-8" target="jEZ4lqBL-6xTg0hK4aj5-24" edge="1">
          <mxGeometry relative="1" as="geometry" />
        </mxCell>
        <mxCell id="jEZ4lqBL-6xTg0hK4aj5-5" style="edgeStyle=none;html=1;exitX=0.5;exitY=0;exitDx=0;exitDy=0;entryX=0.5;entryY=1;entryDx=0;entryDy=0;" parent="1" source="jEZ4lqBL-6xTg0hK4aj5-8" target="jEZ4lqBL-6xTg0hK4aj5-26" edge="1">
          <mxGeometry relative="1" as="geometry" />
        </mxCell>
        <mxCell id="jEZ4lqBL-6xTg0hK4aj5-6" style="edgeStyle=none;html=1;exitX=0.5;exitY=1;exitDx=0;exitDy=0;entryX=0.5;entryY=0;entryDx=0;entryDy=0;" parent="1" source="jEZ4lqBL-6xTg0hK4aj5-8" target="jEZ4lqBL-6xTg0hK4aj5-25" edge="1">
          <mxGeometry relative="1" as="geometry" />
        </mxCell>
        <mxCell id="jEZ4lqBL-6xTg0hK4aj5-7" style="edgeStyle=none;html=1;exitX=1;exitY=0.25;exitDx=0;exitDy=0;entryX=0.5;entryY=1;entryDx=0;entryDy=0;" parent="1" source="jEZ4lqBL-6xTg0hK4aj5-8" target="jEZ4lqBL-6xTg0hK4aj5-27" edge="1">
          <mxGeometry relative="1" as="geometry" />
        </mxCell>
        <mxCell id="jEZ4lqBL-6xTg0hK4aj5-8" value="Account" style="rounded=1;arcSize=10;whiteSpace=wrap;html=1;align=center;" parent="1" vertex="1">
          <mxGeometry x="80" y="155" width="100" height="40" as="geometry" />
        </mxCell>
        <mxCell id="jEZ4lqBL-6xTg0hK4aj5-9" style="edgeStyle=none;html=1;exitX=1;exitY=0.75;exitDx=0;exitDy=0;entryX=0.369;entryY=-0.019;entryDx=0;entryDy=0;entryPerimeter=0;" parent="1" source="jEZ4lqBL-6xTg0hK4aj5-12" target="jEZ4lqBL-6xTg0hK4aj5-45" edge="1">
          <mxGeometry relative="1" as="geometry" />
        </mxCell>
        <mxCell id="jEZ4lqBL-6xTg0hK4aj5-10" style="edgeStyle=none;html=1;exitX=1;exitY=0.25;exitDx=0;exitDy=0;" parent="1" source="jEZ4lqBL-6xTg0hK4aj5-12" target="jEZ4lqBL-6xTg0hK4aj5-46" edge="1">
          <mxGeometry relative="1" as="geometry" />
        </mxCell>
        <mxCell id="jEZ4lqBL-6xTg0hK4aj5-11" style="edgeStyle=none;html=1;exitX=0.25;exitY=0;exitDx=0;exitDy=0;entryX=1;entryY=1;entryDx=0;entryDy=0;" parent="1" source="jEZ4lqBL-6xTg0hK4aj5-12" target="jEZ4lqBL-6xTg0hK4aj5-44" edge="1">
          <mxGeometry relative="1" as="geometry" />
        </mxCell>
        <mxCell id="jEZ4lqBL-6xTg0hK4aj5-12" value="Shipment" style="rounded=1;arcSize=10;whiteSpace=wrap;html=1;align=center;" parent="1" vertex="1">
          <mxGeometry x="975" y="162.5" width="100" height="40" as="geometry" />
        </mxCell>
        <mxCell id="jEZ4lqBL-6xTg0hK4aj5-13" style="edgeStyle=none;html=1;exitX=0.25;exitY=0;exitDx=0;exitDy=0;entryX=0.5;entryY=1;entryDx=0;entryDy=0;" parent="1" source="jEZ4lqBL-6xTg0hK4aj5-17" target="jEZ4lqBL-6xTg0hK4aj5-28" edge="1">
          <mxGeometry relative="1" as="geometry" />
        </mxCell>
        <mxCell id="jEZ4lqBL-6xTg0hK4aj5-14" style="edgeStyle=none;html=1;exitX=0.5;exitY=0;exitDx=0;exitDy=0;entryX=0.5;entryY=1;entryDx=0;entryDy=0;" parent="1" source="jEZ4lqBL-6xTg0hK4aj5-17" target="jEZ4lqBL-6xTg0hK4aj5-29" edge="1">
          <mxGeometry relative="1" as="geometry" />
        </mxCell>
        <mxCell id="jEZ4lqBL-6xTg0hK4aj5-15" style="edgeStyle=none;html=1;exitX=0.75;exitY=0;exitDx=0;exitDy=0;entryX=0.5;entryY=0.833;entryDx=0;entryDy=0;entryPerimeter=0;" parent="1" target="jEZ4lqBL-6xTg0hK4aj5-31" edge="1">
          <mxGeometry relative="1" as="geometry">
            <mxPoint x="1285" y="907.5" as="sourcePoint" />
            <mxPoint x="1295" y="842.5" as="targetPoint" />
          </mxGeometry>
        </mxCell>
        <mxCell id="jEZ4lqBL-6xTg0hK4aj5-16" style="edgeStyle=none;html=1;exitX=0.25;exitY=1;exitDx=0;exitDy=0;entryX=0.5;entryY=0;entryDx=0;entryDy=0;" parent="1" source="jEZ4lqBL-6xTg0hK4aj5-17" target="jEZ4lqBL-6xTg0hK4aj5-35" edge="1">
          <mxGeometry relative="1" as="geometry" />
        </mxCell>
        <mxCell id="jEZ4lqBL-6xTg0hK4aj5-17" value="Product" style="rounded=1;arcSize=10;whiteSpace=wrap;html=1;align=center;" parent="1" vertex="1">
          <mxGeometry x="985" y="655" width="100" height="40" as="geometry" />
        </mxCell>
        <mxCell id="jEZ4lqBL-6xTg0hK4aj5-18" style="edgeStyle=none;html=1;exitX=1;exitY=0;exitDx=0;exitDy=0;entryX=0.5;entryY=1;entryDx=0;entryDy=0;" parent="1" source="jEZ4lqBL-6xTg0hK4aj5-20" target="jEZ4lqBL-6xTg0hK4aj5-60" edge="1">
          <mxGeometry relative="1" as="geometry" />
        </mxCell>
        <mxCell id="jEZ4lqBL-6xTg0hK4aj5-19" style="edgeStyle=none;html=1;exitX=0.25;exitY=0;exitDx=0;exitDy=0;entryX=0.5;entryY=1;entryDx=0;entryDy=0;" parent="1" source="jEZ4lqBL-6xTg0hK4aj5-20" target="jEZ4lqBL-6xTg0hK4aj5-61" edge="1">
          <mxGeometry relative="1" as="geometry" />
        </mxCell>
        <mxCell id="jEZ4lqBL-6xTg0hK4aj5-20" value="Provider" style="rounded=1;arcSize=10;whiteSpace=wrap;html=1;align=center;" parent="1" vertex="1">
          <mxGeometry x="510" width="100" height="40" as="geometry" />
        </mxCell>
        <mxCell id="jEZ4lqBL-6xTg0hK4aj5-21" value="&lt;u&gt;ID&lt;/u&gt;" style="ellipse;whiteSpace=wrap;html=1;align=center;" parent="1" vertex="1">
          <mxGeometry x="40" y="95" width="50" height="20" as="geometry" />
        </mxCell>
        <mxCell id="jEZ4lqBL-6xTg0hK4aj5-22" value="&lt;u&gt;Email&lt;/u&gt;" style="ellipse;whiteSpace=wrap;html=1;align=center;" parent="1" vertex="1">
          <mxGeometry x="105" y="40" width="50" height="20" as="geometry" />
        </mxCell>
        <mxCell id="jEZ4lqBL-6xTg0hK4aj5-23" value="f-name" style="ellipse;whiteSpace=wrap;html=1;align=center;" parent="1" vertex="1">
          <mxGeometry x="140" y="250" width="50" height="20" as="geometry" />
        </mxCell>
        <mxCell id="jEZ4lqBL-6xTg0hK4aj5-24" value="l-name" style="ellipse;whiteSpace=wrap;html=1;align=center;" parent="1" vertex="1">
          <mxGeometry x="40" y="215" width="50" height="20" as="geometry" />
        </mxCell>
        <mxCell id="jEZ4lqBL-6xTg0hK4aj5-25" value="&lt;font style=&quot;font-size: 9px;&quot;&gt;password&lt;/font&gt;" style="ellipse;whiteSpace=wrap;html=1;align=center;" parent="1" vertex="1">
          <mxGeometry x="80" y="250" width="50" height="20" as="geometry" />
        </mxCell>
        <mxCell id="jEZ4lqBL-6xTg0hK4aj5-26" value="role" style="ellipse;whiteSpace=wrap;html=1;align=center;" parent="1" vertex="1">
          <mxGeometry x="70" y="65" width="50" height="20" as="geometry" />
        </mxCell>
        <mxCell id="jEZ4lqBL-6xTg0hK4aj5-27" value="&lt;u&gt;img&lt;/u&gt;" style="ellipse;whiteSpace=wrap;html=1;align=center;" parent="1" vertex="1">
          <mxGeometry x="150" y="60" width="50" height="20" as="geometry" />
        </mxCell>
        <mxCell id="jEZ4lqBL-6xTg0hK4aj5-28" value="&lt;u&gt;ID&lt;/u&gt;" style="ellipse;whiteSpace=wrap;html=1;align=center;" parent="1" vertex="1">
          <mxGeometry x="935" y="567.5" width="60" height="25" as="geometry" />
        </mxCell>
        <mxCell id="jEZ4lqBL-6xTg0hK4aj5-29" value="Name" style="ellipse;whiteSpace=wrap;html=1;align=center;" parent="1" vertex="1">
          <mxGeometry x="1005" y="565" width="60" height="25" as="geometry" />
        </mxCell>
        <mxCell id="jEZ4lqBL-6xTg0hK4aj5-30" value="Img" style="ellipse;whiteSpace=wrap;html=1;align=center;" parent="1" vertex="1">
          <mxGeometry x="1070" y="552.5" width="70" height="30" as="geometry" />
        </mxCell>
        <mxCell id="jEZ4lqBL-6xTg0hK4aj5-31" value="quantity" style="ellipse;whiteSpace=wrap;html=1;align=center;" parent="1" vertex="1">
          <mxGeometry x="1305" y="817.5" width="60" height="30" as="geometry" />
        </mxCell>
        <mxCell id="jEZ4lqBL-6xTg0hK4aj5-32" style="edgeStyle=none;html=1;exitX=0.75;exitY=0;exitDx=0;exitDy=0;entryX=0;entryY=1;entryDx=0;entryDy=0;" parent="1" source="jEZ4lqBL-6xTg0hK4aj5-33" target="jEZ4lqBL-6xTg0hK4aj5-39" edge="1">
          <mxGeometry relative="1" as="geometry" />
        </mxCell>
        <mxCell id="jEZ4lqBL-6xTg0hK4aj5-33" value="Category" style="rounded=1;arcSize=10;whiteSpace=wrap;html=1;align=center;" parent="1" vertex="1">
          <mxGeometry x="1255" y="547.5" width="100" height="40" as="geometry" />
        </mxCell>
        <mxCell id="jEZ4lqBL-6xTg0hK4aj5-34" style="edgeStyle=none;html=1;exitX=0.5;exitY=0;exitDx=0;exitDy=0;entryX=0.5;entryY=1;entryDx=0;entryDy=0;" parent="1" target="jEZ4lqBL-6xTg0hK4aj5-36" edge="1">
          <mxGeometry relative="1" as="geometry">
            <mxPoint x="1260" y="907.5" as="sourcePoint" />
          </mxGeometry>
        </mxCell>
        <mxCell id="jEZ4lqBL-6xTg0hK4aj5-35" value="quantity" style="ellipse;whiteSpace=wrap;html=1;align=center;dashed=1;" parent="1" vertex="1">
          <mxGeometry x="950" y="760" width="70" height="30" as="geometry" />
        </mxCell>
        <mxCell id="jEZ4lqBL-6xTg0hK4aj5-36" value="Ex-date" style="ellipse;whiteSpace=wrap;html=1;align=center;" parent="1" vertex="1">
          <mxGeometry x="1225" y="816.25" width="70" height="32.5" as="geometry" />
        </mxCell>
        <mxCell id="jEZ4lqBL-6xTg0hK4aj5-39" value="&lt;u&gt;name&lt;/u&gt;" style="ellipse;whiteSpace=wrap;html=1;align=center;" parent="1" vertex="1">
          <mxGeometry x="1355" y="472.5" width="60" height="30" as="geometry" />
        </mxCell>
        <mxCell id="jEZ4lqBL-6xTg0hK4aj5-40" value="has" style="shape=rhombus;perimeter=rhombusPerimeter;whiteSpace=wrap;html=1;align=center;" parent="1" vertex="1">
          <mxGeometry x="1205" y="635" width="120" height="60" as="geometry" />
        </mxCell>
        <mxCell id="jEZ4lqBL-6xTg0hK4aj5-41" value="&lt;u&gt;ID&lt;/u&gt;" style="ellipse;whiteSpace=wrap;html=1;align=center;" parent="1" vertex="1">
          <mxGeometry x="1045" y="20" width="80" height="30" as="geometry" />
        </mxCell>
        <mxCell id="jEZ4lqBL-6xTg0hK4aj5-42" value="C-date" style="ellipse;whiteSpace=wrap;html=1;align=center;" parent="1" vertex="1">
          <mxGeometry x="955" y="20" width="80" height="30" as="geometry" />
        </mxCell>
        <mxCell id="jEZ4lqBL-6xTg0hK4aj5-43" style="edgeStyle=none;html=1;entryX=0.5;entryY=1;entryDx=0;entryDy=0;exitX=0.365;exitY=-0.014;exitDx=0;exitDy=0;exitPerimeter=0;" parent="1" source="jEZ4lqBL-6xTg0hK4aj5-12" target="jEZ4lqBL-6xTg0hK4aj5-42" edge="1">
          <mxGeometry relative="1" as="geometry" />
        </mxCell>
        <mxCell id="jEZ4lqBL-6xTg0hK4aj5-44" value="status" style="ellipse;whiteSpace=wrap;html=1;align=center;" parent="1" vertex="1">
          <mxGeometry x="850" y="30" width="70" height="30" as="geometry" />
        </mxCell>
        <mxCell id="jEZ4lqBL-6xTg0hK4aj5-45" value="A-date" style="ellipse;whiteSpace=wrap;html=1;align=center;" parent="1" vertex="1">
          <mxGeometry x="1165" y="75" width="80" height="30" as="geometry" />
        </mxCell>
        <mxCell id="jEZ4lqBL-6xTg0hK4aj5-46" value="Arr-date" style="ellipse;whiteSpace=wrap;html=1;align=center;" parent="1" vertex="1">
          <mxGeometry x="1135" y="10" width="80" height="30" as="geometry" />
        </mxCell>
        <mxCell id="jEZ4lqBL-6xTg0hK4aj5-47" style="edgeStyle=none;html=1;exitX=0.75;exitY=1;exitDx=0;exitDy=0;" parent="1" source="jEZ4lqBL-6xTg0hK4aj5-50" target="jEZ4lqBL-6xTg0hK4aj5-51" edge="1">
          <mxGeometry relative="1" as="geometry" />
        </mxCell>
        <mxCell id="jEZ4lqBL-6xTg0hK4aj5-48" style="edgeStyle=none;html=1;exitX=0;exitY=1;exitDx=0;exitDy=0;entryX=0.5;entryY=0;entryDx=0;entryDy=0;" parent="1" source="jEZ4lqBL-6xTg0hK4aj5-50" target="jEZ4lqBL-6xTg0hK4aj5-54" edge="1">
          <mxGeometry relative="1" as="geometry" />
        </mxCell>
        <mxCell id="jEZ4lqBL-6xTg0hK4aj5-49" style="edgeStyle=none;html=1;exitX=1;exitY=0.75;exitDx=0;exitDy=0;entryX=0.369;entryY=-0.019;entryDx=0;entryDy=0;entryPerimeter=0;" parent="1" source="jEZ4lqBL-6xTg0hK4aj5-50" target="jEZ4lqBL-6xTg0hK4aj5-55" edge="1">
          <mxGeometry relative="1" as="geometry" />
        </mxCell>
        <mxCell id="jEZ4lqBL-6xTg0hK4aj5-50" value="Order" style="rounded=1;arcSize=10;whiteSpace=wrap;html=1;align=center;" parent="1" vertex="1">
          <mxGeometry x="85" y="1090" width="100" height="40" as="geometry" />
        </mxCell>
        <mxCell id="jEZ4lqBL-6xTg0hK4aj5-51" value="&lt;u&gt;ID&lt;/u&gt;" style="ellipse;whiteSpace=wrap;html=1;align=center;" parent="1" vertex="1">
          <mxGeometry x="140" y="1206.25" width="80" height="30" as="geometry" />
        </mxCell>
        <mxCell id="jEZ4lqBL-6xTg0hK4aj5-52" value="C-date" style="ellipse;whiteSpace=wrap;html=1;align=center;" parent="1" vertex="1">
          <mxGeometry x="75" y="1230" width="80" height="30" as="geometry" />
        </mxCell>
        <mxCell id="jEZ4lqBL-6xTg0hK4aj5-53" style="edgeStyle=none;html=1;entryX=0.5;entryY=0;entryDx=0;entryDy=0;exitX=0.25;exitY=1;exitDx=0;exitDy=0;" parent="1" source="jEZ4lqBL-6xTg0hK4aj5-50" target="jEZ4lqBL-6xTg0hK4aj5-52" edge="1">
          <mxGeometry relative="1" as="geometry" />
        </mxCell>
        <mxCell id="jEZ4lqBL-6xTg0hK4aj5-54" value="status" style="ellipse;whiteSpace=wrap;html=1;align=center;" parent="1" vertex="1">
          <mxGeometry x="25" y="1195" width="70" height="30" as="geometry" />
        </mxCell>
        <mxCell id="jEZ4lqBL-6xTg0hK4aj5-55" value="A-date" style="ellipse;whiteSpace=wrap;html=1;align=center;" parent="1" vertex="1">
          <mxGeometry x="230" y="1225" width="80" height="30" as="geometry" />
        </mxCell>
        <mxCell id="jEZ4lqBL-6xTg0hK4aj5-56" value="create" style="rhombus;whiteSpace=wrap;html=1;rounded=1;arcSize=10;" parent="1" vertex="1">
          <mxGeometry x="560" y="220" width="80" height="80" as="geometry" />
        </mxCell>
        <mxCell id="jEZ4lqBL-6xTg0hK4aj5-57" value="Accept" style="rhombus;whiteSpace=wrap;html=1;rounded=1;arcSize=10;" parent="1" vertex="1">
          <mxGeometry x="420" y="115" width="80" height="80" as="geometry" />
        </mxCell>
        <mxCell id="jEZ4lqBL-6xTg0hK4aj5-58" value="create" style="rhombus;whiteSpace=wrap;html=1;rounded=1;arcSize=10;" parent="1" vertex="1">
          <mxGeometry x="10" y="618.75" width="80" height="80" as="geometry" />
        </mxCell>
        <mxCell id="jEZ4lqBL-6xTg0hK4aj5-59" value="Accept" style="rhombus;whiteSpace=wrap;html=1;rounded=1;arcSize=10;" parent="1" vertex="1">
          <mxGeometry x="230" y="621.25" width="80" height="80" as="geometry" />
        </mxCell>
        <mxCell id="jEZ4lqBL-6xTg0hK4aj5-60" value="&lt;u&gt;ID&lt;/u&gt;" style="ellipse;whiteSpace=wrap;html=1;align=center;" parent="1" vertex="1">
          <mxGeometry x="600" y="-100" width="60" height="30" as="geometry" />
        </mxCell>
        <mxCell id="jEZ4lqBL-6xTg0hK4aj5-61" value="name" style="ellipse;whiteSpace=wrap;html=1;align=center;" parent="1" vertex="1">
          <mxGeometry x="460" y="-100" width="60" height="30" as="geometry" />
        </mxCell>
        <mxCell id="jEZ4lqBL-6xTg0hK4aj5-62" style="edgeStyle=none;html=1;exitX=1;exitY=0;exitDx=0;exitDy=0;entryX=0.5;entryY=1;entryDx=0;entryDy=0;" parent="1" source="jEZ4lqBL-6xTg0hK4aj5-64" target="jEZ4lqBL-6xTg0hK4aj5-65" edge="1">
          <mxGeometry relative="1" as="geometry" />
        </mxCell>
        <mxCell id="jEZ4lqBL-6xTg0hK4aj5-63" style="edgeStyle=none;html=1;exitX=0;exitY=0;exitDx=0;exitDy=0;entryX=0.5;entryY=1;entryDx=0;entryDy=0;" parent="1" source="jEZ4lqBL-6xTg0hK4aj5-64" target="jEZ4lqBL-6xTg0hK4aj5-66" edge="1">
          <mxGeometry relative="1" as="geometry" />
        </mxCell>
        <mxCell id="jEZ4lqBL-6xTg0hK4aj5-64" value="Consumer" style="rounded=1;arcSize=10;whiteSpace=wrap;html=1;align=center;" parent="1" vertex="1">
          <mxGeometry x="370" y="645" width="100" height="40" as="geometry" />
        </mxCell>
        <mxCell id="jEZ4lqBL-6xTg0hK4aj5-65" value="&lt;u&gt;ID&lt;/u&gt;" style="ellipse;whiteSpace=wrap;html=1;align=center;" parent="1" vertex="1">
          <mxGeometry x="460" y="570" width="60" height="30" as="geometry" />
        </mxCell>
        <mxCell id="jEZ4lqBL-6xTg0hK4aj5-66" value="name" style="ellipse;whiteSpace=wrap;html=1;align=center;" parent="1" vertex="1">
          <mxGeometry x="300" y="560" width="60" height="30" as="geometry" />
        </mxCell>
        <mxCell id="jEZ4lqBL-6xTg0hK4aj5-67" value="has" style="rhombus;whiteSpace=wrap;html=1;rounded=1;arcSize=10;" parent="1" vertex="1">
          <mxGeometry x="695" y="-50" width="80" height="80" as="geometry" />
        </mxCell>
        <mxCell id="jEZ4lqBL-6xTg0hK4aj5-68" value="consume" style="rhombus;whiteSpace=wrap;html=1;rounded=1;arcSize=10;" parent="1" vertex="1">
          <mxGeometry x="320" y="777.5" width="80" height="80" as="geometry" />
        </mxCell>
        <mxCell id="jEZ4lqBL-6xTg0hK4aj5-69" style="edgeStyle=none;html=1;exitX=0.75;exitY=0;exitDx=0;exitDy=0;entryX=0.384;entryY=1.056;entryDx=0;entryDy=0;entryPerimeter=0;" parent="1" source="jEZ4lqBL-6xTg0hK4aj5-12" target="jEZ4lqBL-6xTg0hK4aj5-41" edge="1">
          <mxGeometry relative="1" as="geometry" />
        </mxCell>
        <mxCell id="jEZ4lqBL-6xTg0hK4aj5-70" style="edgeStyle=none;html=1;exitX=0.5;exitY=1;exitDx=0;exitDy=0;entryX=0.5;entryY=0;entryDx=0;entryDy=0;" parent="1" source="jEZ4lqBL-6xTg0hK4aj5-71" target="jEZ4lqBL-6xTg0hK4aj5-81" edge="1">
          <mxGeometry relative="1" as="geometry" />
        </mxCell>
        <mxCell id="jEZ4lqBL-6xTg0hK4aj5-71" value="has" style="rhombus;whiteSpace=wrap;html=1;rounded=1;arcSize=10;" parent="1" vertex="1">
          <mxGeometry x="590" y="752.5" width="80" height="80" as="geometry" />
        </mxCell>
        <mxCell id="jEZ4lqBL-6xTg0hK4aj5-72" style="edgeStyle=none;html=1;exitX=1;exitY=0.5;exitDx=0;exitDy=0;entryX=0;entryY=0.5;entryDx=0;entryDy=0;" parent="1" source="jEZ4lqBL-6xTg0hK4aj5-73" target="jEZ4lqBL-6xTg0hK4aj5-82" edge="1">
          <mxGeometry relative="1" as="geometry" />
        </mxCell>
        <mxCell id="jEZ4lqBL-6xTg0hK4aj5-73" value="has" style="rhombus;whiteSpace=wrap;html=1;rounded=1;arcSize=10;" parent="1" vertex="1">
          <mxGeometry x="1310" y="372.5" width="80" height="80" as="geometry" />
        </mxCell>
        <mxCell id="jEZ4lqBL-6xTg0hK4aj5-74" value="create" style="rhombus;whiteSpace=wrap;html=1;rounded=1;arcSize=10;" parent="1" vertex="1">
          <mxGeometry x="780" y="462.5" width="80" height="80" as="geometry" />
        </mxCell>
        <mxCell id="jEZ4lqBL-6xTg0hK4aj5-75" value="create" style="rhombus;whiteSpace=wrap;html=1;rounded=1;arcSize=10;" parent="1" vertex="1">
          <mxGeometry x="260" y="-100.63" width="80" height="80" as="geometry" />
        </mxCell>
        <mxCell id="jEZ4lqBL-6xTg0hK4aj5-76" value="Accept" style="rhombus;whiteSpace=wrap;html=1;rounded=1;arcSize=10;" parent="1" vertex="1">
          <mxGeometry x="350" y="407.5" width="80" height="80" as="geometry" />
        </mxCell>
        <mxCell id="jEZ4lqBL-6xTg0hK4aj5-77" value="" style="shape=link;html=1;rounded=0;entryX=0.695;entryY=0.84;entryDx=0;entryDy=0;entryPerimeter=0;exitX=0.033;exitY=0.114;exitDx=0;exitDy=0;exitPerimeter=0;" parent="1" source="jEZ4lqBL-6xTg0hK4aj5-12" target="jEZ4lqBL-6xTg0hK4aj5-67" edge="1">
          <mxGeometry relative="1" as="geometry">
            <mxPoint x="730" y="70" as="sourcePoint" />
            <mxPoint x="890" y="70" as="targetPoint" />
          </mxGeometry>
        </mxCell>
        <mxCell id="jEZ4lqBL-6xTg0hK4aj5-78" value="M" style="resizable=0;html=1;whiteSpace=wrap;align=right;verticalAlign=bottom;" parent="jEZ4lqBL-6xTg0hK4aj5-77" connectable="0" vertex="1">
          <mxGeometry x="1" relative="1" as="geometry">
            <mxPoint x="25" y="7" as="offset" />
          </mxGeometry>
        </mxCell>
        <mxCell id="jEZ4lqBL-6xTg0hK4aj5-79" value="" style="endArrow=none;html=1;rounded=0;exitX=1;exitY=0.5;exitDx=0;exitDy=0;entryX=0;entryY=0.5;entryDx=0;entryDy=0;" parent="1" source="jEZ4lqBL-6xTg0hK4aj5-20" target="jEZ4lqBL-6xTg0hK4aj5-67" edge="1">
          <mxGeometry relative="1" as="geometry">
            <mxPoint x="740" y="50" as="sourcePoint" />
            <mxPoint x="900" y="50" as="targetPoint" />
          </mxGeometry>
        </mxCell>
        <mxCell id="jEZ4lqBL-6xTg0hK4aj5-80" value="1" style="resizable=0;html=1;whiteSpace=wrap;align=right;verticalAlign=bottom;" parent="jEZ4lqBL-6xTg0hK4aj5-79" connectable="0" vertex="1">
          <mxGeometry x="1" relative="1" as="geometry">
            <mxPoint x="-5" as="offset" />
          </mxGeometry>
        </mxCell>
        <mxCell id="jEZ4lqBL-6xTg0hK4aj5-81" value="quantity" style="ellipse;whiteSpace=wrap;html=1;align=center;" parent="1" vertex="1">
          <mxGeometry x="610" y="917.5" width="60" height="30" as="geometry" />
        </mxCell>
        <mxCell id="jEZ4lqBL-6xTg0hK4aj5-82" value="quantity" style="ellipse;whiteSpace=wrap;html=1;align=center;" parent="1" vertex="1">
          <mxGeometry x="1430" y="382.5" width="60" height="27.5" as="geometry" />
        </mxCell>
        <mxCell id="jEZ4lqBL-6xTg0hK4aj5-83" value="" style="shape=link;html=1;rounded=0;exitX=0;exitY=0.5;exitDx=0;exitDy=0;" parent="1" source="jEZ4lqBL-6xTg0hK4aj5-20" target="jEZ4lqBL-6xTg0hK4aj5-75" edge="1">
          <mxGeometry relative="1" as="geometry">
            <mxPoint x="520" y="90" as="sourcePoint" />
            <mxPoint x="500" y="-1" as="targetPoint" />
          </mxGeometry>
        </mxCell>
        <mxCell id="jEZ4lqBL-6xTg0hK4aj5-84" value="M" style="resizable=0;html=1;whiteSpace=wrap;align=right;verticalAlign=bottom;" parent="jEZ4lqBL-6xTg0hK4aj5-83" connectable="0" vertex="1">
          <mxGeometry x="1" relative="1" as="geometry">
            <mxPoint x="31" y="1" as="offset" />
          </mxGeometry>
        </mxCell>
        <mxCell id="jEZ4lqBL-6xTg0hK4aj5-85" value="" style="endArrow=none;html=1;rounded=0;exitX=1;exitY=0;exitDx=0;exitDy=0;" parent="1" source="jEZ4lqBL-6xTg0hK4aj5-8" target="jEZ4lqBL-6xTg0hK4aj5-75" edge="1">
          <mxGeometry relative="1" as="geometry">
            <mxPoint x="295" y="60" as="sourcePoint" />
            <mxPoint x="380" y="30" as="targetPoint" />
          </mxGeometry>
        </mxCell>
        <mxCell id="jEZ4lqBL-6xTg0hK4aj5-86" value="1" style="resizable=0;html=1;whiteSpace=wrap;align=right;verticalAlign=bottom;" parent="jEZ4lqBL-6xTg0hK4aj5-85" connectable="0" vertex="1">
          <mxGeometry x="1" relative="1" as="geometry">
            <mxPoint x="-16" y="15" as="offset" />
          </mxGeometry>
        </mxCell>
        <mxCell id="jEZ4lqBL-6xTg0hK4aj5-87" value="" style="endArrow=none;html=1;rounded=0;exitX=1;exitY=0.25;exitDx=0;exitDy=0;entryX=0;entryY=0.5;entryDx=0;entryDy=0;" parent="1" source="jEZ4lqBL-6xTg0hK4aj5-8" target="jEZ4lqBL-6xTg0hK4aj5-57" edge="1">
          <mxGeometry relative="1" as="geometry">
            <mxPoint x="190" y="165" as="sourcePoint" />
            <mxPoint x="296" y="-25" as="targetPoint" />
          </mxGeometry>
        </mxCell>
        <mxCell id="jEZ4lqBL-6xTg0hK4aj5-88" value="1" style="resizable=0;html=1;whiteSpace=wrap;align=right;verticalAlign=bottom;" parent="jEZ4lqBL-6xTg0hK4aj5-87" connectable="0" vertex="1">
          <mxGeometry x="1" relative="1" as="geometry">
            <mxPoint x="-10" y="-5" as="offset" />
          </mxGeometry>
        </mxCell>
        <mxCell id="jEZ4lqBL-6xTg0hK4aj5-89" value="" style="shape=link;html=1;rounded=0;entryX=1;entryY=0.5;entryDx=0;entryDy=0;exitX=0;exitY=0.75;exitDx=0;exitDy=0;" parent="1" source="jEZ4lqBL-6xTg0hK4aj5-12" target="jEZ4lqBL-6xTg0hK4aj5-56" edge="1">
          <mxGeometry relative="1" as="geometry">
            <mxPoint x="1015" y="213" as="sourcePoint" />
            <mxPoint x="540" y="195" as="targetPoint" />
          </mxGeometry>
        </mxCell>
        <mxCell id="jEZ4lqBL-6xTg0hK4aj5-90" value="M" style="resizable=0;html=1;whiteSpace=wrap;align=right;verticalAlign=bottom;" parent="jEZ4lqBL-6xTg0hK4aj5-89" connectable="0" vertex="1">
          <mxGeometry x="1" relative="1" as="geometry">
            <mxPoint x="10" y="-6" as="offset" />
          </mxGeometry>
        </mxCell>
        <mxCell id="jEZ4lqBL-6xTg0hK4aj5-91" value="" style="endArrow=none;html=1;rounded=0;exitX=1;exitY=0.75;exitDx=0;exitDy=0;entryX=0;entryY=0.5;entryDx=0;entryDy=0;" parent="1" source="jEZ4lqBL-6xTg0hK4aj5-8" target="jEZ4lqBL-6xTg0hK4aj5-56" edge="1">
          <mxGeometry relative="1" as="geometry">
            <mxPoint x="190" y="175" as="sourcePoint" />
            <mxPoint x="430" y="165" as="targetPoint" />
          </mxGeometry>
        </mxCell>
        <mxCell id="jEZ4lqBL-6xTg0hK4aj5-92" value="1" style="resizable=0;html=1;whiteSpace=wrap;align=right;verticalAlign=bottom;" parent="jEZ4lqBL-6xTg0hK4aj5-91" connectable="0" vertex="1">
          <mxGeometry x="1" relative="1" as="geometry">
            <mxPoint x="-10" y="-5" as="offset" />
          </mxGeometry>
        </mxCell>
        <mxCell id="jEZ4lqBL-6xTg0hK4aj5-93" value="" style="shape=link;html=1;rounded=0;exitX=0;exitY=0.25;exitDx=0;exitDy=0;" parent="1" source="jEZ4lqBL-6xTg0hK4aj5-17" target="jEZ4lqBL-6xTg0hK4aj5-74" edge="1">
          <mxGeometry relative="1" as="geometry">
            <mxPoint x="985" y="203" as="sourcePoint" />
            <mxPoint x="650" y="270" as="targetPoint" />
          </mxGeometry>
        </mxCell>
        <mxCell id="jEZ4lqBL-6xTg0hK4aj5-94" value="M" style="resizable=0;html=1;whiteSpace=wrap;align=right;verticalAlign=bottom;" parent="jEZ4lqBL-6xTg0hK4aj5-93" connectable="0" vertex="1">
          <mxGeometry x="1" relative="1" as="geometry">
            <mxPoint x="30" y="8" as="offset" />
          </mxGeometry>
        </mxCell>
        <mxCell id="jEZ4lqBL-6xTg0hK4aj5-95" value="" style="endArrow=none;html=1;rounded=0;exitX=1;exitY=1;exitDx=0;exitDy=0;" parent="1" source="jEZ4lqBL-6xTg0hK4aj5-8" target="jEZ4lqBL-6xTg0hK4aj5-74" edge="1">
          <mxGeometry relative="1" as="geometry">
            <mxPoint x="260" y="290" as="sourcePoint" />
            <mxPoint x="640" y="365" as="targetPoint" />
          </mxGeometry>
        </mxCell>
        <mxCell id="jEZ4lqBL-6xTg0hK4aj5-96" value="1" style="resizable=0;html=1;whiteSpace=wrap;align=right;verticalAlign=bottom;" parent="jEZ4lqBL-6xTg0hK4aj5-95" connectable="0" vertex="1">
          <mxGeometry x="1" relative="1" as="geometry">
            <mxPoint x="-3" y="-11" as="offset" />
          </mxGeometry>
        </mxCell>
        <mxCell id="jEZ4lqBL-6xTg0hK4aj5-97" value="" style="shape=link;html=1;rounded=0;exitX=0.75;exitY=1;exitDx=0;exitDy=0;" parent="1" source="jEZ4lqBL-6xTg0hK4aj5-12" target="jEZ4lqBL-6xTg0hK4aj5-73" edge="1">
          <mxGeometry relative="1" as="geometry">
            <mxPoint x="1215" y="432.5" as="sourcePoint" />
            <mxPoint x="805" y="382.5" as="targetPoint" />
          </mxGeometry>
        </mxCell>
        <mxCell id="jEZ4lqBL-6xTg0hK4aj5-98" value="M" style="resizable=0;html=1;whiteSpace=wrap;align=right;verticalAlign=bottom;" parent="jEZ4lqBL-6xTg0hK4aj5-97" connectable="0" vertex="1">
          <mxGeometry x="1" relative="1" as="geometry">
            <mxPoint x="9" y="-13" as="offset" />
          </mxGeometry>
        </mxCell>
        <mxCell id="jEZ4lqBL-6xTg0hK4aj5-99" style="edgeStyle=none;html=1;exitX=0.75;exitY=0;exitDx=0;exitDy=0;entryX=0.271;entryY=1.024;entryDx=0;entryDy=0;entryPerimeter=0;" parent="1" source="jEZ4lqBL-6xTg0hK4aj5-17" target="jEZ4lqBL-6xTg0hK4aj5-30" edge="1">
          <mxGeometry relative="1" as="geometry" />
        </mxCell>
        <mxCell id="jEZ4lqBL-6xTg0hK4aj5-100" value="" style="endArrow=none;html=1;rounded=0;exitX=1;exitY=0;exitDx=0;exitDy=0;entryX=0;entryY=1;entryDx=0;entryDy=0;" parent="1" source="jEZ4lqBL-6xTg0hK4aj5-17" target="jEZ4lqBL-6xTg0hK4aj5-73" edge="1">
          <mxGeometry relative="1" as="geometry">
            <mxPoint x="1110" y="280" as="sourcePoint" />
            <mxPoint x="1195" y="250" as="targetPoint" />
          </mxGeometry>
        </mxCell>
        <mxCell id="jEZ4lqBL-6xTg0hK4aj5-101" value="M" style="resizable=0;html=1;whiteSpace=wrap;align=right;verticalAlign=bottom;" parent="jEZ4lqBL-6xTg0hK4aj5-100" connectable="0" vertex="1">
          <mxGeometry x="1" relative="1" as="geometry">
            <mxPoint x="-20" y="7" as="offset" />
          </mxGeometry>
        </mxCell>
        <mxCell id="jEZ4lqBL-6xTg0hK4aj5-102" value="" style="shape=link;html=1;rounded=0;exitX=1;exitY=0.25;exitDx=0;exitDy=0;" parent="1" source="jEZ4lqBL-6xTg0hK4aj5-50" target="jEZ4lqBL-6xTg0hK4aj5-71" edge="1">
          <mxGeometry relative="1" as="geometry">
            <mxPoint x="702.5" y="703" as="sourcePoint" />
            <mxPoint x="557.5" y="560" as="targetPoint" />
          </mxGeometry>
        </mxCell>
        <mxCell id="jEZ4lqBL-6xTg0hK4aj5-103" value="M" style="resizable=0;html=1;whiteSpace=wrap;align=right;verticalAlign=bottom;" parent="jEZ4lqBL-6xTg0hK4aj5-102" connectable="0" vertex="1">
          <mxGeometry x="1" relative="1" as="geometry">
            <mxPoint x="-26" y="7" as="offset" />
          </mxGeometry>
        </mxCell>
        <mxCell id="jEZ4lqBL-6xTg0hK4aj5-104" value="" style="endArrow=none;html=1;rounded=0;exitX=0;exitY=1;exitDx=0;exitDy=0;entryX=0.883;entryY=0.334;entryDx=0;entryDy=0;entryPerimeter=0;" parent="1" source="jEZ4lqBL-6xTg0hK4aj5-17" target="jEZ4lqBL-6xTg0hK4aj5-71" edge="1">
          <mxGeometry relative="1" as="geometry">
            <mxPoint x="1095" y="665" as="sourcePoint" />
            <mxPoint x="1340" y="443" as="targetPoint" />
          </mxGeometry>
        </mxCell>
        <mxCell id="jEZ4lqBL-6xTg0hK4aj5-105" value="M" style="resizable=0;html=1;whiteSpace=wrap;align=right;verticalAlign=bottom;" parent="jEZ4lqBL-6xTg0hK4aj5-104" connectable="0" vertex="1">
          <mxGeometry x="1" relative="1" as="geometry">
            <mxPoint x="16" y="-17" as="offset" />
          </mxGeometry>
        </mxCell>
        <mxCell id="jEZ4lqBL-6xTg0hK4aj5-106" value="" style="shape=link;html=1;rounded=0;exitX=0.843;exitY=0.112;exitDx=0;exitDy=0;exitPerimeter=0;entryX=0;entryY=1;entryDx=0;entryDy=0;" parent="1" source="jEZ4lqBL-6xTg0hK4aj5-50" target="jEZ4lqBL-6xTg0hK4aj5-68" edge="1">
          <mxGeometry relative="1" as="geometry">
            <mxPoint x="195" y="1110" as="sourcePoint" />
            <mxPoint x="616" y="819" as="targetPoint" />
          </mxGeometry>
        </mxCell>
        <mxCell id="jEZ4lqBL-6xTg0hK4aj5-107" value="M" style="resizable=0;html=1;whiteSpace=wrap;align=right;verticalAlign=bottom;" parent="jEZ4lqBL-6xTg0hK4aj5-106" connectable="0" vertex="1">
          <mxGeometry x="1" relative="1" as="geometry">
            <mxPoint x="-10" y="12" as="offset" />
          </mxGeometry>
        </mxCell>
        <mxCell id="jEZ4lqBL-6xTg0hK4aj5-108" value="" style="endArrow=none;html=1;rounded=0;exitX=0.416;exitY=1.08;exitDx=0;exitDy=0;exitPerimeter=0;" parent="1" source="jEZ4lqBL-6xTg0hK4aj5-64" target="jEZ4lqBL-6xTg0hK4aj5-68" edge="1">
          <mxGeometry relative="1" as="geometry">
            <mxPoint x="410" y="618.75" as="sourcePoint" />
            <mxPoint x="790" y="693.75" as="targetPoint" />
          </mxGeometry>
        </mxCell>
        <mxCell id="jEZ4lqBL-6xTg0hK4aj5-109" value="1" style="resizable=0;html=1;whiteSpace=wrap;align=right;verticalAlign=bottom;" parent="jEZ4lqBL-6xTg0hK4aj5-108" connectable="0" vertex="1">
          <mxGeometry x="1" relative="1" as="geometry">
            <mxPoint x="-2" y="-11" as="offset" />
          </mxGeometry>
        </mxCell>
        <mxCell id="jEZ4lqBL-6xTg0hK4aj5-110" value="" style="shape=link;html=1;rounded=0;exitX=0.382;exitY=0.004;exitDx=0;exitDy=0;entryX=0.562;entryY=0.905;entryDx=0;entryDy=0;entryPerimeter=0;exitPerimeter=0;" parent="1" source="jEZ4lqBL-6xTg0hK4aj5-64" target="jEZ4lqBL-6xTg0hK4aj5-76" edge="1">
          <mxGeometry relative="1" as="geometry">
            <mxPoint x="610" y="580" as="sourcePoint" />
            <mxPoint x="465" y="437" as="targetPoint" />
          </mxGeometry>
        </mxCell>
        <mxCell id="jEZ4lqBL-6xTg0hK4aj5-111" value="M" style="resizable=0;html=1;whiteSpace=wrap;align=right;verticalAlign=bottom;" parent="jEZ4lqBL-6xTg0hK4aj5-110" connectable="0" vertex="1">
          <mxGeometry x="1" relative="1" as="geometry">
            <mxPoint x="25" y="20" as="offset" />
          </mxGeometry>
        </mxCell>
        <mxCell id="jEZ4lqBL-6xTg0hK4aj5-112" value="" style="endArrow=none;html=1;rounded=0;exitX=1;exitY=1;exitDx=0;exitDy=0;" parent="1" source="jEZ4lqBL-6xTg0hK4aj5-8" target="jEZ4lqBL-6xTg0hK4aj5-76" edge="1">
          <mxGeometry relative="1" as="geometry">
            <mxPoint x="190" y="175" as="sourcePoint" />
            <mxPoint x="430" y="165" as="targetPoint" />
          </mxGeometry>
        </mxCell>
        <mxCell id="jEZ4lqBL-6xTg0hK4aj5-113" value="1" style="resizable=0;html=1;whiteSpace=wrap;align=right;verticalAlign=bottom;" parent="jEZ4lqBL-6xTg0hK4aj5-112" connectable="0" vertex="1">
          <mxGeometry x="1" relative="1" as="geometry">
            <mxPoint x="-2" y="-13" as="offset" />
          </mxGeometry>
        </mxCell>
        <mxCell id="jEZ4lqBL-6xTg0hK4aj5-114" value="" style="endArrow=none;html=1;rounded=0;exitX=0;exitY=0.5;exitDx=0;exitDy=0;entryX=1;entryY=0.5;entryDx=0;entryDy=0;" parent="1" source="jEZ4lqBL-6xTg0hK4aj5-12" target="jEZ4lqBL-6xTg0hK4aj5-57" edge="1">
          <mxGeometry relative="1" as="geometry">
            <mxPoint x="400" y="80" as="sourcePoint" />
            <mxPoint x="780" y="155" as="targetPoint" />
          </mxGeometry>
        </mxCell>
        <mxCell id="jEZ4lqBL-6xTg0hK4aj5-115" value="M" style="resizable=0;html=1;whiteSpace=wrap;align=right;verticalAlign=bottom;" parent="jEZ4lqBL-6xTg0hK4aj5-114" connectable="0" vertex="1">
          <mxGeometry x="1" relative="1" as="geometry">
            <mxPoint x="10" y="-5" as="offset" />
          </mxGeometry>
        </mxCell>
        <mxCell id="jEZ4lqBL-6xTg0hK4aj5-116" value="" style="endArrow=none;html=1;rounded=0;exitX=0.877;exitY=1.022;exitDx=0;exitDy=0;entryX=0.5;entryY=0;entryDx=0;entryDy=0;exitPerimeter=0;" parent="1" source="jEZ4lqBL-6xTg0hK4aj5-8" target="jEZ4lqBL-6xTg0hK4aj5-59" edge="1">
          <mxGeometry relative="1" as="geometry">
            <mxPoint x="190" y="195" as="sourcePoint" />
            <mxPoint x="570" y="270" as="targetPoint" />
          </mxGeometry>
        </mxCell>
        <mxCell id="jEZ4lqBL-6xTg0hK4aj5-117" value="1" style="resizable=0;html=1;whiteSpace=wrap;align=right;verticalAlign=bottom;" parent="jEZ4lqBL-6xTg0hK4aj5-116" connectable="0" vertex="1">
          <mxGeometry x="1" relative="1" as="geometry">
            <mxPoint x="-10" y="-5" as="offset" />
          </mxGeometry>
        </mxCell>
        <mxCell id="jEZ4lqBL-6xTg0hK4aj5-118" value="" style="endArrow=none;html=1;rounded=0;exitX=0.85;exitY=-0.035;exitDx=0;exitDy=0;entryX=0.5;entryY=1;entryDx=0;entryDy=0;exitPerimeter=0;" parent="1" source="jEZ4lqBL-6xTg0hK4aj5-50" target="jEZ4lqBL-6xTg0hK4aj5-59" edge="1">
          <mxGeometry relative="1" as="geometry">
            <mxPoint x="895" y="759.25" as="sourcePoint" />
            <mxPoint x="420" y="731.25" as="targetPoint" />
          </mxGeometry>
        </mxCell>
        <mxCell id="jEZ4lqBL-6xTg0hK4aj5-119" value="M" style="resizable=0;html=1;whiteSpace=wrap;align=right;verticalAlign=bottom;" parent="jEZ4lqBL-6xTg0hK4aj5-118" connectable="0" vertex="1">
          <mxGeometry x="1" relative="1" as="geometry">
            <mxPoint x="-10" y="17" as="offset" />
          </mxGeometry>
        </mxCell>
        <mxCell id="jEZ4lqBL-6xTg0hK4aj5-120" value="" style="endArrow=none;html=1;rounded=0;exitX=0.75;exitY=1;exitDx=0;exitDy=0;entryX=0.5;entryY=0;entryDx=0;entryDy=0;" parent="1" source="jEZ4lqBL-6xTg0hK4aj5-8" target="jEZ4lqBL-6xTg0hK4aj5-58" edge="1">
          <mxGeometry relative="1" as="geometry">
            <mxPoint x="130" y="372.5" as="sourcePoint" />
            <mxPoint x="743" y="667.5" as="targetPoint" />
          </mxGeometry>
        </mxCell>
        <mxCell id="jEZ4lqBL-6xTg0hK4aj5-121" value="1" style="resizable=0;html=1;whiteSpace=wrap;align=right;verticalAlign=bottom;" parent="jEZ4lqBL-6xTg0hK4aj5-120" connectable="0" vertex="1">
          <mxGeometry x="1" relative="1" as="geometry">
            <mxPoint x="-3" y="-11" as="offset" />
          </mxGeometry>
        </mxCell>
        <mxCell id="jEZ4lqBL-6xTg0hK4aj5-122" value="" style="shape=link;html=1;rounded=0;exitX=0;exitY=0;exitDx=0;exitDy=0;entryX=0.5;entryY=1;entryDx=0;entryDy=0;" parent="1" source="jEZ4lqBL-6xTg0hK4aj5-50" target="jEZ4lqBL-6xTg0hK4aj5-58" edge="1">
          <mxGeometry relative="1" as="geometry">
            <mxPoint x="265" y="767.5" as="sourcePoint" />
            <mxPoint x="120" y="624.5" as="targetPoint" />
          </mxGeometry>
        </mxCell>
        <mxCell id="jEZ4lqBL-6xTg0hK4aj5-123" value="M" style="resizable=0;html=1;whiteSpace=wrap;align=right;verticalAlign=bottom;" parent="jEZ4lqBL-6xTg0hK4aj5-122" connectable="0" vertex="1">
          <mxGeometry x="1" relative="1" as="geometry">
            <mxPoint x="-10" y="12" as="offset" />
          </mxGeometry>
        </mxCell>
        <mxCell id="jEZ4lqBL-6xTg0hK4aj5-124" value="" style="shape=link;html=1;rounded=0;exitX=1;exitY=0.5;exitDx=0;exitDy=0;" parent="1" source="jEZ4lqBL-6xTg0hK4aj5-17" edge="1">
          <mxGeometry relative="1" as="geometry">
            <mxPoint x="1275" y="780.5" as="sourcePoint" />
            <mxPoint x="1210" y="665" as="targetPoint" />
          </mxGeometry>
        </mxCell>
        <mxCell id="jEZ4lqBL-6xTg0hK4aj5-125" value="M" style="resizable=0;html=1;whiteSpace=wrap;align=right;verticalAlign=bottom;" parent="jEZ4lqBL-6xTg0hK4aj5-124" connectable="0" vertex="1">
          <mxGeometry x="1" relative="1" as="geometry">
            <mxPoint x="-5" y="-10" as="offset" />
          </mxGeometry>
        </mxCell>
        <mxCell id="jEZ4lqBL-6xTg0hK4aj5-126" value="" style="endArrow=none;html=1;rounded=0;exitX=0.5;exitY=1;exitDx=0;exitDy=0;entryX=0.5;entryY=0;entryDx=0;entryDy=0;" parent="1" source="jEZ4lqBL-6xTg0hK4aj5-33" target="jEZ4lqBL-6xTg0hK4aj5-40" edge="1">
          <mxGeometry relative="1" as="geometry">
            <mxPoint x="1420" y="620" as="sourcePoint" />
            <mxPoint x="1868" y="530" as="targetPoint" />
          </mxGeometry>
        </mxCell>
        <mxCell id="jEZ4lqBL-6xTg0hK4aj5-127" value="1" style="resizable=0;html=1;whiteSpace=wrap;align=right;verticalAlign=bottom;" parent="jEZ4lqBL-6xTg0hK4aj5-126" connectable="0" vertex="1">
          <mxGeometry x="1" relative="1" as="geometry">
            <mxPoint x="-5" as="offset" />
          </mxGeometry>
        </mxCell>
        <mxCell id="jEZ4lqBL-6xTg0hK4aj5-128" value="" style="shape=link;html=1;rounded=0;exitX=0.16;exitY=0.082;exitDx=0;exitDy=0;entryX=1;entryY=1;entryDx=0;entryDy=0;exitPerimeter=0;" parent="1" edge="1">
          <mxGeometry relative="1" as="geometry">
            <mxPoint x="1226" y="910.7799999999997" as="sourcePoint" />
            <mxPoint x="1185" y="812.5" as="targetPoint" />
          </mxGeometry>
        </mxCell>
        <mxCell id="jEZ4lqBL-6xTg0hK4aj5-129" value="M" style="resizable=0;html=1;whiteSpace=wrap;align=right;verticalAlign=bottom;" parent="jEZ4lqBL-6xTg0hK4aj5-128" connectable="0" vertex="1">
          <mxGeometry x="1" relative="1" as="geometry">
            <mxPoint x="25" y="15" as="offset" />
          </mxGeometry>
        </mxCell>
        <mxCell id="jEZ4lqBL-6xTg0hK4aj5-130" value="" style="endArrow=none;html=1;rounded=0;exitX=0.64;exitY=0.974;exitDx=0;exitDy=0;entryX=0.316;entryY=0.153;entryDx=0;entryDy=0;exitPerimeter=0;entryPerimeter=0;" parent="1" source="jEZ4lqBL-6xTg0hK4aj5-17" edge="1">
          <mxGeometry relative="1" as="geometry">
            <mxPoint x="1190" y="701.25" as="sourcePoint" />
            <mxPoint x="1132.9199999999998" y="776.6800000000003" as="targetPoint" />
          </mxGeometry>
        </mxCell>
        <mxCell id="jEZ4lqBL-6xTg0hK4aj5-131" value="1" style="resizable=0;html=1;whiteSpace=wrap;align=right;verticalAlign=bottom;" parent="jEZ4lqBL-6xTg0hK4aj5-130" connectable="0" vertex="1">
          <mxGeometry x="1" relative="1" as="geometry">
            <mxPoint x="2" y="-9" as="offset" />
          </mxGeometry>
        </mxCell>
        <mxCell id="PpOk-TcXV7jJizUt8mYX-2" value="Product Details" style="rounded=1;arcSize=10;whiteSpace=wrap;html=1;align=center;" vertex="1" parent="1">
          <mxGeometry x="1210" y="907.5" width="100" height="40" as="geometry" />
        </mxCell>
        <mxCell id="PpOk-TcXV7jJizUt8mYX-3" value="&lt;u&gt;ID&lt;/u&gt;" style="ellipse;whiteSpace=wrap;html=1;align=center;" vertex="1" parent="1">
          <mxGeometry x="1330" y="947.5" width="60" height="30" as="geometry" />
        </mxCell>
        <mxCell id="PpOk-TcXV7jJizUt8mYX-5" style="edgeStyle=none;html=1;exitX=1;exitY=0.5;exitDx=0;exitDy=0;" edge="1" parent="1" source="PpOk-TcXV7jJizUt8mYX-2" target="PpOk-TcXV7jJizUt8mYX-3">
          <mxGeometry relative="1" as="geometry">
            <mxPoint x="1370" y="945.5" as="sourcePoint" />
            <mxPoint x="1420" y="880" as="targetPoint" />
          </mxGeometry>
        </mxCell>
        <mxCell id="PpOk-TcXV7jJizUt8mYX-7" value="has" style="shape=rhombus;perimeter=rhombusPerimeter;whiteSpace=wrap;html=1;align=center;" vertex="1" parent="1">
          <mxGeometry x="1095" y="762.5" width="120" height="60" as="geometry" />
        </mxCell>
      </root>
    </mxGraphModel>
  </diagram>
</mxfile>
